<svg xmlns="http://www.w3.org/2000/svg" viewBox="100 0 2000 1200" width="1000" height="800" transform="scale(-1, 1)" transform-origin="center">
  <path d="M411.2 768.1L374.9 755.6L353.4 763.4L341.5 781.5L324.1 788.8L331.5 812.3L363.8 810.1L388.4 794.7L402.7 768.1Z" fill="fillColor"/>
  <path d="M830.6 725.9L799.9 719.9L764.8 737.6L691.8 710.5L706.5 676.4L782.5 659.9L801.4 670.9L805.8 698.5L839.3 707.2L865.3 724.4L830.6 725.9Z" fill="fillColor"/>
  <path d="M917.3 534.5L941.3 506.8L993.2 506.8L976.7 537.2L917.3 534.5Z" fill="fillColor"/>
  <path d="M1224.2 572.7L1201.2 514.4L1217.4 474.7L1285.6 465.9L1323.7 548.3L1283.9 551.6L1224.2 572.7Z" fill="fillColor"/>
  <path d="M1666.5 347.4L1633.2 344.1L1614.2 311.7L1622.6 269.7L1697.1 263.7L1772.8 298.1L1764.9 351.5L1666.5 347.4Z" fill="fillColor"/>
</svg>
